<?xml version="1.0" encoding="UTF-8"?>
<svg version="1.1" xmlns="http://www.w3.org/2000/svg" width="426" height="426">
<path d="M0 0 C11.22 0 22.44 0 34 0 C34 2.64 34 5.28 34 8 C39.28 8 44.56 8 50 8 C50 10.64 50 13.28 50 16 C55.28 16 60.56 16 66 16 C66 21.28 66 26.56 66 32 C68.64 32 71.28 32 74 32 C74 34.64 74 37.28 74 40 C76.64 40 79.28 40 82 40 C82 56.17 82 72.34 82 89 C79.36 89 76.72 89 74 89 C74 94.28 74 99.56 74 105 C68.72 105 63.44 105 58 105 C58 107.97 58 110.94 58 114 C46.78 114 35.56 114 24 114 C24 111.03 24 108.06 24 105 C21.69 105 19.38 105 17 105 C17 97.08 17 89.16 17 81 C14.69 81 12.38 81 10 81 C10 86.28 10 91.56 10 97 C7.03 97 4.06 97 1 97 C1 99.64 1 102.28 1 105 C-1.31 105 -3.62 105 -6 105 C-6 107.97 -6 110.94 -6 114 C-13.92 114 -21.84 114 -30 114 C-30 124.56 -30 135.12 -30 146 C-33.3 146 -36.6 146 -40 146 C-40 143.03 -40 140.06 -40 137 C-42.64 137 -45.28 137 -48 137 C-48 134.36 -48 131.72 -48 129 C-49.98 129 -51.96 129 -54 129 C-54 134.61 -54 140.22 -54 146 C-57.3 146 -60.6 146 -64 146 C-64 140.39 -64 134.78 -64 129 C-66.31 129 -68.62 129 -71 129 C-71 131.64 -71 134.28 -71 137 C-81.89 137 -92.78 137 -104 137 C-104 134.36 -104 131.72 -104 129 C-109.28 129 -114.56 129 -120 129 C-120 126.36 -120 123.72 -120 121 C-121.98 121 -123.96 121 -126 121 C-126 123.97 -126 126.94 -126 130 C-129.3 130 -132.6 130 -136 130 C-136 119.11 -136 108.22 -136 97 C-138.31 97 -140.62 97 -143 97 C-143 94.69 -143 92.38 -143 90 C-153.89 90 -164.78 90 -176 90 C-176 87.36 -176 84.72 -176 82 C-178.64 82 -181.28 82 -184 82 C-184 76.06 -184 70.12 -184 64 C-181.36 64 -178.72 64 -176 64 C-176 61.36 -176 58.72 -176 56 C-173.36 56 -170.72 56 -168 56 C-168 50.72 -168 45.44 -168 40 C-162.06 40 -156.12 40 -150 40 C-150 42.64 -150 45.28 -150 48 C-147.36 48 -144.72 48 -142 48 C-142 50.64 -142 53.28 -142 56 C-140.02 56 -138.04 56 -136 56 C-136 53.36 -136 50.72 -136 48 C-130.06 48 -124.12 48 -118 48 C-118 50.64 -118 53.28 -118 56 C-112.72 56 -107.44 56 -102 56 C-102 58.64 -102 61.28 -102 64 C-99.36 64 -96.72 64 -94 64 C-94 66.64 -94 69.28 -94 72 C-88.72 72 -83.44 72 -78 72 C-78 74.64 -78 77.28 -78 80 C-62.82 80 -47.64 80 -32 80 C-32 72.41 -32 64.82 -32 57 C-34.64 57 -37.28 57 -40 57 C-40 43.47 -40 29.94 -40 16 C-34.72 16 -29.44 16 -24 16 C-24 13.36 -24 10.72 -24 8 C-16.08 8 -8.16 8 0 8 C0 5.36 0 2.72 0 0 Z " fill="#7D4A17" transform="translate(267,124)"/>
<path d="M0 0 C11.22 0 22.44 0 34 0 C34 2.64 34 5.28 34 8 C39.28 8 44.56 8 50 8 C50 10.64 50 13.28 50 16 C55.28 16 60.56 16 66 16 C66 21.28 66 26.56 66 32 C68.64 32 71.28 32 74 32 C74 34.64 74 37.28 74 40 C76.64 40 79.28 40 82 40 C82 56.17 82 72.34 82 89 C79.36 89 76.72 89 74 89 C74 94.28 74 99.56 74 105 C68.72 105 63.44 105 58 105 C58 107.97 58 110.94 58 114 C46.78 114 35.56 114 24 114 C24 111.03 24 108.06 24 105 C21.69 105 19.38 105 17 105 C17 97.08 17 89.16 17 81 C14.69 81 12.38 81 10 81 C10 86.28 10 91.56 10 97 C7.03 97 4.06 97 1 97 C1 99.64 1 102.28 1 105 C-1.31 105 -3.62 105 -6 105 C-6 107.97 -6 110.94 -6 114 C-13.92 114 -21.84 114 -30 114 C-30 124.56 -30 135.12 -30 146 C-33.3 146 -36.6 146 -40 146 C-40 143.03 -40 140.06 -40 137 C-42.64 137 -45.28 137 -48 137 C-48 134.36 -48 131.72 -48 129 C-49.98 129 -51.96 129 -54 129 C-54 134.61 -54 140.22 -54 146 C-57.3 146 -60.6 146 -64 146 C-64 140.39 -64 134.78 -64 129 C-66.31 129 -68.62 129 -71 129 C-71 131.64 -71 134.28 -71 137 C-81.89 137 -92.78 137 -104 137 C-104 134.36 -104 131.72 -104 129 C-109.28 129 -114.56 129 -120 129 C-120 126.36 -120 123.72 -120 121 C-121.98 121 -123.96 121 -126 121 C-126 123.97 -126 126.94 -126 130 C-129.3 130 -132.6 130 -136 130 C-136 119.11 -136 108.22 -136 97 C-138.31 97 -140.62 97 -143 97 C-143 94.69 -143 92.38 -143 90 C-153.89 90 -164.78 90 -176 90 C-176 87.36 -176 84.72 -176 82 C-178.64 82 -181.28 82 -184 82 C-184 76.06 -184 70.12 -184 64 C-181.36 64 -178.72 64 -176 64 C-176 61.36 -176 58.72 -176 56 C-173.36 56 -170.72 56 -168 56 C-168 50.72 -168 45.44 -168 40 C-162.06 40 -156.12 40 -150 40 C-150 42.64 -150 45.28 -150 48 C-147.36 48 -144.72 48 -142 48 C-142 50.64 -142 53.28 -142 56 C-140.02 56 -138.04 56 -136 56 C-136 53.36 -136 50.72 -136 48 C-130.06 48 -124.12 48 -118 48 C-118 50.64 -118 53.28 -118 56 C-112.72 56 -107.44 56 -102 56 C-102 58.64 -102 61.28 -102 64 C-99.36 64 -96.72 64 -94 64 C-94 66.64 -94 69.28 -94 72 C-88.72 72 -83.44 72 -78 72 C-78 74.64 -78 77.28 -78 80 C-62.82 80 -47.64 80 -32 80 C-32 72.41 -32 64.82 -32 57 C-34.64 57 -37.28 57 -40 57 C-40 43.47 -40 29.94 -40 16 C-34.72 16 -29.44 16 -24 16 C-24 13.36 -24 10.72 -24 8 C-16.08 8 -8.16 8 0 8 C0 5.36 0 2.72 0 0 Z M9 9 C9 11.64 9 14.28 9 17 C-1.56 17 -12.12 17 -23 17 C-23 19.64 -23 22.28 -23 25 C-25.64 25 -28.28 25 -31 25 C-31 35.56 -31 46.12 -31 57 C-28.36 57 -25.72 57 -23 57 C-23 67.56 -23 78.12 -23 89 C-41.48 89 -59.96 89 -79 89 C-79 86.36 -79 83.72 -79 81 C-86.92 81 -94.84 81 -103 81 C-103 78.36 -103 75.72 -103 73 C-105.64 73 -108.28 73 -111 73 C-111 70.36 -111 67.72 -111 65 C-121.56 65 -132.12 65 -143 65 C-143 62.36 -143 59.72 -143 57 C-148.28 57 -153.56 57 -159 57 C-159 59.64 -159 62.28 -159 65 C-161.64 65 -164.28 65 -167 65 C-167 67.64 -167 70.28 -167 73 C-169.64 73 -172.28 73 -175 73 C-175 75.64 -175 78.28 -175 81 C-161.8 81 -148.6 81 -135 81 C-135 83.64 -135 86.28 -135 89 C-132.36 89 -129.72 89 -127 89 C-127 94.28 -127 99.56 -127 105 C-124.36 105 -121.72 105 -119 105 C-119 107.64 -119 110.28 -119 113 C-113.72 113 -108.44 113 -103 113 C-103 110.36 -103 107.72 -103 105 C-100.36 105 -97.72 105 -95 105 C-95 110.28 -95 115.56 -95 121 C-92.36 121 -89.72 121 -87 121 C-87 118.36 -87 115.72 -87 113 C-81.72 113 -76.44 113 -71 113 C-71 110.36 -71 107.72 -71 105 C-68.36 105 -65.72 105 -63 105 C-63 107.64 -63 110.28 -63 113 C-57.72 113 -52.44 113 -47 113 C-47 115.64 -47 118.28 -47 121 C-44.36 121 -41.72 121 -39 121 C-39 115.72 -39 110.44 -39 105 C-28.44 105 -17.88 105 -7 105 C-7 102.36 -7 99.72 -7 97 C-4.36 97 -1.72 97 1 97 C1 89.08 1 81.16 1 73 C3.64 73 6.28 73 9 73 C9 70.36 9 67.72 9 65 C11.64 65 14.28 65 17 65 C17 62.36 17 59.72 17 57 C22.28 57 27.56 57 33 57 C33 62.28 33 67.56 33 73 C30.36 73 27.72 73 25 73 C25 83.56 25 94.12 25 105 C35.56 105 46.12 105 57 105 C57 102.36 57 99.72 57 97 C59.64 97 62.28 97 65 97 C65 91.72 65 86.44 65 81 C67.64 81 70.28 81 73 81 C73 67.8 73 54.6 73 41 C70.36 41 67.72 41 65 41 C65 38.36 65 35.72 65 33 C62.36 33 59.72 33 57 33 C57 30.36 57 27.72 57 25 C54.36 25 51.72 25 49 25 C49 22.36 49 19.72 49 17 C43.72 17 38.44 17 33 17 C33 14.36 33 11.72 33 9 C25.08 9 17.16 9 9 9 Z " fill="#000000" transform="translate(267,124)"/>
<path d="M0 0 C7.92 0 15.84 0 24 0 C24 2.64 24 5.28 24 8 C29.28 8 34.56 8 40 8 C40 10.64 40 13.28 40 16 C42.64 16 45.28 16 48 16 C48 17.98 48 19.96 48 22 C44.37 22 40.74 22 37 22 C37 21.01 37 20.02 37 19 C36.01 19 35.02 19 34 19 C34 17.35 34 15.7 34 14 C28.72 14 23.44 14 18 14 C18 11.36 18 8.72 18 6 C14.04 6 10.08 6 6 6 C6 8.64 6 11.28 6 14 C-4.56 14 -15.12 14 -26 14 C-26 16.64 -26 19.28 -26 22 C-28.64 22 -31.28 22 -34 22 C-34 30.58 -34 39.16 -34 48 C-35.98 48 -37.96 48 -40 48 C-40 37.44 -40 26.88 -40 16 C-37.36 16 -34.72 16 -32 16 C-32 13.36 -32 10.72 -32 8 C-21.44 8 -10.88 8 0 8 C0 5.36 0 2.72 0 0 Z " fill="#7B5937" transform="translate(276,133)"/>
<path d="M0 0 C1.98 0 3.96 0 6 0 C6 2.64 6 5.28 6 8 C3.36 8 0.72 8 -2 8 C-2 10.64 -2 13.28 -2 16 C-4.64 16 -7.28 16 -10 16 C-10 23.92 -10 31.84 -10 40 C-12.64 40 -15.28 40 -18 40 C-18 42.64 -18 45.28 -18 48 C-28.56 48 -39.12 48 -50 48 C-50 53.28 -50 58.56 -50 64 C-52.64 64 -55.28 64 -58 64 C-58 62.02 -58 60.04 -58 58 C-57.34 58 -56.68 58 -56 58 C-56 52.72 -56 47.44 -56 42 C-45.44 42 -34.88 42 -24 42 C-24 39.36 -24 36.72 -24 34 C-21.36 34 -18.72 34 -16 34 C-16 26.08 -16 18.16 -16 10 C-13.36 10 -10.72 10 -8 10 C-8 7.36 -8 4.72 -8 2 C-5.36 2 -2.72 2 0 2 C0 1.34 0 0.68 0 0 Z " fill="#6D4012" transform="translate(278,181)"/>
<path d="M0 0 C1.98 0 3.96 0 6 0 C6 13.2 6 26.4 6 40 C3.36 40 0.72 40 -2 40 C-2 45.28 -2 50.56 -2 56 C-4.64 56 -7.28 56 -10 56 C-10 58.64 -10 61.28 -10 64 C-20.56 64 -31.12 64 -42 64 C-42 62.02 -42 60.04 -42 58 C-33.42 58 -24.84 58 -16 58 C-16 55.36 -16 52.72 -16 50 C-13.36 50 -10.72 50 -8 50 C-8 44.72 -8 39.44 -8 34 C-5.36 34 -2.72 34 0 34 C0 22.78 0 11.56 0 0 Z " fill="#6D4012" transform="translate(334,165)"/>
<path d="M0 0 C10.56 0 21.12 0 32 0 C32 2.64 32 5.28 32 8 C34.64 8 37.28 8 40 8 C40 10.64 40 13.28 40 16 C47.92 16 55.84 16 64 16 C64 17.98 64 19.96 64 22 C54.1 22 44.2 22 34 22 C34 19.36 34 16.72 34 14 C31.36 14 28.72 14 26 14 C26 11.36 26 8.72 26 6 C17.42 6 8.84 6 0 6 C0 4.02 0 2.04 0 0 Z " fill="#7B5937" transform="translate(124,189)"/>
<path d="M0 0 C1.98 0 3.96 0 6 0 C6 10.56 6 21.12 6 32 C4.02 32 2.04 32 0 32 C0 21.44 0 10.88 0 0 Z " fill="#7B5937" transform="translate(244,181)"/>
<path d="M0 0 C1.98 0 3.96 0 6 0 C6 3.96 6 7.92 6 12 C4.35 12 2.7 12 1 12 C1 13.32 1 14.64 1 16 C0.01 16 -0.98 16 -2 16 C-2 17.65 -2 19.3 -2 21 C-3.98 21 -5.96 21 -8 21 C-8 17.37 -8 13.74 -8 10 C-5.36 10 -2.72 10 0 10 C0 6.7 0 3.4 0 0 Z " fill="#6D4012" transform="translate(300,187)"/>
<path d="M0 0 C1.98 0 3.96 0 6 0 C6 2.64 6 5.28 6 8 C1.71 8 -2.58 8 -7 8 C-7 6.02 -7 4.04 -7 2 C-4.69 2 -2.38 2 0 2 C0 1.34 0 0.68 0 0 Z " fill="#6D4012" transform="translate(190,229)"/>
<path d="M0 0 C1.98 0 3.96 0 6 0 C6 2.64 6 5.28 6 8 C1.71 8 -2.58 8 -7 8 C-7 6.02 -7 4.04 -7 2 C-4.69 2 -2.38 2 0 2 C0 1.34 0 0.68 0 0 Z " fill="#6D4012" transform="translate(158,229)"/>
<path d="M0 0 C3.96 0 7.92 0 12 0 C12 1.98 12 3.96 12 6 C8.04 6 4.08 6 0 6 C0 4.02 0 2.04 0 0 Z " fill="#7B5937" transform="translate(112,181)"/>
<path d="M0 0 C2.64 0 5.28 0 8 0 C8 2.64 8 5.28 8 8 C5.36 8 2.72 8 0 8 C0 5.36 0 2.72 0 0 Z " fill="#000000" transform="translate(108,189)"/>
<path d="M0 0 C1.98 0 3.96 0 6 0 C6 2.64 6 5.28 6 8 C4.02 8 2.04 8 0 8 C0 5.36 0 2.72 0 0 Z " fill="#6D4012" transform="translate(174,237)"/>
</svg>
